<mxfile host="app.diagrams.net" modified="2023-11-24T08:40:39.870Z" agent="Mozilla/5.0 (Windows NT 10.0; Win64; x64) AppleWebKit/537.36 (KHTML, like Gecko) Chrome/119.0.0.0 Safari/537.36 Edg/119.0.0.0" etag="l8M7N8eh6RuQi6KiQ3bK" version="22.1.3" type="github">
  <diagram id="C5RBs43oDa-KdzZeNtuy" name="Page-1">
    <mxGraphModel dx="1226" dy="629" grid="1" gridSize="10" guides="1" tooltips="1" connect="1" arrows="1" fold="1" page="1" pageScale="1" pageWidth="1654" pageHeight="2336" math="0" shadow="0">
      <root>
        <mxCell id="WIyWlLk6GJQsqaUBKTNV-0" />
        <mxCell id="WIyWlLk6GJQsqaUBKTNV-1" parent="WIyWlLk6GJQsqaUBKTNV-0" />
        <mxCell id="WIyWlLk6GJQsqaUBKTNV-2" value="" style="rounded=0;html=1;jettySize=auto;orthogonalLoop=1;fontSize=11;endArrow=block;endFill=0;endSize=8;strokeWidth=1;shadow=0;labelBackgroundColor=none;edgeStyle=orthogonalEdgeStyle;" parent="WIyWlLk6GJQsqaUBKTNV-1" source="WIyWlLk6GJQsqaUBKTNV-3" target="WIyWlLk6GJQsqaUBKTNV-6" edge="1">
          <mxGeometry relative="1" as="geometry" />
        </mxCell>
        <mxCell id="WIyWlLk6GJQsqaUBKTNV-3" value="int y ,int m,int d" style="rounded=1;whiteSpace=wrap;html=1;fontSize=12;glass=0;strokeWidth=1;shadow=0;" parent="WIyWlLk6GJQsqaUBKTNV-1" vertex="1">
          <mxGeometry x="160" y="80" width="120" height="40" as="geometry" />
        </mxCell>
        <mxCell id="WIyWlLk6GJQsqaUBKTNV-4" value="F" style="rounded=0;html=1;jettySize=auto;orthogonalLoop=1;fontSize=11;endArrow=block;endFill=0;endSize=8;strokeWidth=1;shadow=0;labelBackgroundColor=none;edgeStyle=orthogonalEdgeStyle;" parent="WIyWlLk6GJQsqaUBKTNV-1" edge="1">
          <mxGeometry x="-0.7333" y="10" relative="1" as="geometry">
            <mxPoint as="offset" />
            <mxPoint x="220" y="210" as="sourcePoint" />
            <mxPoint x="220" y="285" as="targetPoint" />
          </mxGeometry>
        </mxCell>
        <mxCell id="WIyWlLk6GJQsqaUBKTNV-5" value="T" style="edgeStyle=orthogonalEdgeStyle;rounded=0;html=1;jettySize=auto;orthogonalLoop=1;fontSize=11;endArrow=block;endFill=0;endSize=8;strokeWidth=1;shadow=0;labelBackgroundColor=none;" parent="WIyWlLk6GJQsqaUBKTNV-1" source="WIyWlLk6GJQsqaUBKTNV-6" target="WIyWlLk6GJQsqaUBKTNV-7" edge="1">
          <mxGeometry x="-1" y="10" relative="1" as="geometry">
            <mxPoint as="offset" />
          </mxGeometry>
        </mxCell>
        <mxCell id="WIyWlLk6GJQsqaUBKTNV-6" value="y&amp;lt;1" style="rhombus;whiteSpace=wrap;html=1;shadow=0;fontFamily=Helvetica;fontSize=12;align=center;strokeWidth=1;spacing=6;spacingTop=-4;" parent="WIyWlLk6GJQsqaUBKTNV-1" vertex="1">
          <mxGeometry x="170" y="170" width="100" height="40" as="geometry" />
        </mxCell>
        <mxCell id="e8tr8vdrp6v2wdwAVoa9-16" style="edgeStyle=orthogonalEdgeStyle;rounded=0;orthogonalLoop=1;jettySize=auto;html=1;" parent="WIyWlLk6GJQsqaUBKTNV-1" source="WIyWlLk6GJQsqaUBKTNV-7" target="e8tr8vdrp6v2wdwAVoa9-15" edge="1">
          <mxGeometry relative="1" as="geometry" />
        </mxCell>
        <mxCell id="WIyWlLk6GJQsqaUBKTNV-7" value="return false;" style="rounded=1;whiteSpace=wrap;html=1;fontSize=12;glass=0;strokeWidth=1;shadow=0;" parent="WIyWlLk6GJQsqaUBKTNV-1" vertex="1">
          <mxGeometry x="320" y="170" width="120" height="40" as="geometry" />
        </mxCell>
        <mxCell id="WIyWlLk6GJQsqaUBKTNV-8" value="" style="rounded=0;html=1;jettySize=auto;orthogonalLoop=1;fontSize=11;endArrow=block;endFill=0;endSize=8;strokeWidth=1;shadow=0;labelBackgroundColor=none;edgeStyle=orthogonalEdgeStyle;" parent="WIyWlLk6GJQsqaUBKTNV-1" source="WIyWlLk6GJQsqaUBKTNV-10" target="WIyWlLk6GJQsqaUBKTNV-11" edge="1">
          <mxGeometry x="-0.4545" y="20" relative="1" as="geometry">
            <mxPoint as="offset" />
          </mxGeometry>
        </mxCell>
        <mxCell id="e8tr8vdrp6v2wdwAVoa9-75" style="edgeStyle=orthogonalEdgeStyle;rounded=0;orthogonalLoop=1;jettySize=auto;html=1;exitX=1;exitY=0.5;exitDx=0;exitDy=0;entryX=0.5;entryY=0;entryDx=0;entryDy=0;" parent="WIyWlLk6GJQsqaUBKTNV-1" source="WIyWlLk6GJQsqaUBKTNV-10" target="e8tr8vdrp6v2wdwAVoa9-0" edge="1">
          <mxGeometry relative="1" as="geometry">
            <Array as="points">
              <mxPoint x="315" y="330" />
              <mxPoint x="315" y="490" />
              <mxPoint x="220" y="490" />
            </Array>
          </mxGeometry>
        </mxCell>
        <mxCell id="WIyWlLk6GJQsqaUBKTNV-10" value="((y%4==0)&amp;amp;&amp;amp;(y%100!=0))||(y%400==0)" style="rhombus;whiteSpace=wrap;html=1;shadow=0;fontFamily=Helvetica;fontSize=12;align=center;strokeWidth=1;spacing=6;spacingTop=-4;" parent="WIyWlLk6GJQsqaUBKTNV-1" vertex="1">
          <mxGeometry x="145" y="285" width="150" height="90" as="geometry" />
        </mxCell>
        <mxCell id="e8tr8vdrp6v2wdwAVoa9-1" value="" style="edgeStyle=orthogonalEdgeStyle;rounded=0;orthogonalLoop=1;jettySize=auto;html=1;" parent="WIyWlLk6GJQsqaUBKTNV-1" source="WIyWlLk6GJQsqaUBKTNV-11" target="e8tr8vdrp6v2wdwAVoa9-0" edge="1">
          <mxGeometry relative="1" as="geometry" />
        </mxCell>
        <mxCell id="WIyWlLk6GJQsqaUBKTNV-11" value="maxA[1]=29;" style="rounded=1;whiteSpace=wrap;html=1;fontSize=12;glass=0;strokeWidth=1;shadow=0;" parent="WIyWlLk6GJQsqaUBKTNV-1" vertex="1">
          <mxGeometry x="160" y="430" width="120" height="40" as="geometry" />
        </mxCell>
        <mxCell id="e8tr8vdrp6v2wdwAVoa9-4" value="" style="edgeStyle=orthogonalEdgeStyle;rounded=0;orthogonalLoop=1;jettySize=auto;html=1;" parent="WIyWlLk6GJQsqaUBKTNV-1" source="e8tr8vdrp6v2wdwAVoa9-0" target="e8tr8vdrp6v2wdwAVoa9-3" edge="1">
          <mxGeometry relative="1" as="geometry" />
        </mxCell>
        <mxCell id="e8tr8vdrp6v2wdwAVoa9-6" value="" style="edgeStyle=orthogonalEdgeStyle;rounded=0;orthogonalLoop=1;jettySize=auto;html=1;" parent="WIyWlLk6GJQsqaUBKTNV-1" source="e8tr8vdrp6v2wdwAVoa9-0" target="e8tr8vdrp6v2wdwAVoa9-5" edge="1">
          <mxGeometry relative="1" as="geometry" />
        </mxCell>
        <mxCell id="e8tr8vdrp6v2wdwAVoa9-0" value="m&amp;lt;0||m&amp;gt;12" style="rhombus;whiteSpace=wrap;html=1;rounded=1;glass=0;strokeWidth=1;shadow=0;" parent="WIyWlLk6GJQsqaUBKTNV-1" vertex="1">
          <mxGeometry x="165" y="520" width="110" height="50" as="geometry" />
        </mxCell>
        <mxCell id="e8tr8vdrp6v2wdwAVoa9-2" value="T" style="text;html=1;align=center;verticalAlign=middle;resizable=0;points=[];autosize=1;strokeColor=none;fillColor=none;" parent="WIyWlLk6GJQsqaUBKTNV-1" vertex="1">
          <mxGeometry x="265" y="520" width="30" height="30" as="geometry" />
        </mxCell>
        <mxCell id="e8tr8vdrp6v2wdwAVoa9-17" style="edgeStyle=orthogonalEdgeStyle;rounded=0;orthogonalLoop=1;jettySize=auto;html=1;" parent="WIyWlLk6GJQsqaUBKTNV-1" source="e8tr8vdrp6v2wdwAVoa9-3" target="e8tr8vdrp6v2wdwAVoa9-15" edge="1">
          <mxGeometry relative="1" as="geometry" />
        </mxCell>
        <mxCell id="e8tr8vdrp6v2wdwAVoa9-3" value="return false;" style="whiteSpace=wrap;html=1;rounded=1;glass=0;strokeWidth=1;shadow=0;" parent="WIyWlLk6GJQsqaUBKTNV-1" vertex="1">
          <mxGeometry x="350" y="527.5" width="90" height="35" as="geometry" />
        </mxCell>
        <mxCell id="e8tr8vdrp6v2wdwAVoa9-10" value="" style="edgeStyle=orthogonalEdgeStyle;rounded=0;orthogonalLoop=1;jettySize=auto;html=1;" parent="WIyWlLk6GJQsqaUBKTNV-1" source="e8tr8vdrp6v2wdwAVoa9-5" target="e8tr8vdrp6v2wdwAVoa9-9" edge="1">
          <mxGeometry relative="1" as="geometry" />
        </mxCell>
        <mxCell id="e8tr8vdrp6v2wdwAVoa9-39" style="edgeStyle=orthogonalEdgeStyle;rounded=0;orthogonalLoop=1;jettySize=auto;html=1;entryX=0.5;entryY=1;entryDx=0;entryDy=0;" parent="WIyWlLk6GJQsqaUBKTNV-1" source="e8tr8vdrp6v2wdwAVoa9-5" target="e8tr8vdrp6v2wdwAVoa9-3" edge="1">
          <mxGeometry relative="1" as="geometry" />
        </mxCell>
        <mxCell id="e8tr8vdrp6v2wdwAVoa9-5" value="d&amp;gt;maxA[m-1]" style="rhombus;whiteSpace=wrap;html=1;rounded=1;glass=0;strokeWidth=1;shadow=0;" parent="WIyWlLk6GJQsqaUBKTNV-1" vertex="1">
          <mxGeometry x="165" y="608" width="110" height="50" as="geometry" />
        </mxCell>
        <mxCell id="e8tr8vdrp6v2wdwAVoa9-19" style="edgeStyle=orthogonalEdgeStyle;rounded=0;orthogonalLoop=1;jettySize=auto;html=1;exitX=1;exitY=0.5;exitDx=0;exitDy=0;" parent="WIyWlLk6GJQsqaUBKTNV-1" source="e8tr8vdrp6v2wdwAVoa9-9" target="e8tr8vdrp6v2wdwAVoa9-15" edge="1">
          <mxGeometry relative="1" as="geometry" />
        </mxCell>
        <mxCell id="e8tr8vdrp6v2wdwAVoa9-9" value="return true;" style="whiteSpace=wrap;html=1;rounded=1;glass=0;strokeWidth=1;shadow=0;" parent="WIyWlLk6GJQsqaUBKTNV-1" vertex="1">
          <mxGeometry x="165" y="690" width="110" height="35" as="geometry" />
        </mxCell>
        <mxCell id="e8tr8vdrp6v2wdwAVoa9-11" value="F" style="text;html=1;align=center;verticalAlign=middle;resizable=0;points=[];autosize=1;strokeColor=none;fillColor=none;" parent="WIyWlLk6GJQsqaUBKTNV-1" vertex="1">
          <mxGeometry x="215" y="628" width="30" height="30" as="geometry" />
        </mxCell>
        <mxCell id="e8tr8vdrp6v2wdwAVoa9-12" value="T" style="text;html=1;align=center;verticalAlign=middle;resizable=0;points=[];autosize=1;strokeColor=none;fillColor=none;" parent="WIyWlLk6GJQsqaUBKTNV-1" vertex="1">
          <mxGeometry x="265" y="608" width="30" height="30" as="geometry" />
        </mxCell>
        <mxCell id="e8tr8vdrp6v2wdwAVoa9-13" value="F" style="text;html=1;align=center;verticalAlign=middle;resizable=0;points=[];autosize=1;strokeColor=none;fillColor=none;" parent="WIyWlLk6GJQsqaUBKTNV-1" vertex="1">
          <mxGeometry x="215" y="558" width="30" height="30" as="geometry" />
        </mxCell>
        <mxCell id="e8tr8vdrp6v2wdwAVoa9-14" value="T" style="text;html=1;align=center;verticalAlign=middle;resizable=0;points=[];autosize=1;strokeColor=none;fillColor=none;" parent="WIyWlLk6GJQsqaUBKTNV-1" vertex="1">
          <mxGeometry x="215" y="368" width="30" height="30" as="geometry" />
        </mxCell>
        <mxCell id="e8tr8vdrp6v2wdwAVoa9-15" value="end" style="strokeWidth=2;html=1;shape=mxgraph.flowchart.terminator;whiteSpace=wrap;" parent="WIyWlLk6GJQsqaUBKTNV-1" vertex="1">
          <mxGeometry x="450" y="328" width="75" height="40" as="geometry" />
        </mxCell>
        <mxCell id="e8tr8vdrp6v2wdwAVoa9-29" style="edgeStyle=orthogonalEdgeStyle;rounded=0;orthogonalLoop=1;jettySize=auto;html=1;exitX=0.5;exitY=1;exitDx=0;exitDy=0;curved=1;" parent="WIyWlLk6GJQsqaUBKTNV-1" source="e8tr8vdrp6v2wdwAVoa9-20" target="e8tr8vdrp6v2wdwAVoa9-23" edge="1">
          <mxGeometry relative="1" as="geometry" />
        </mxCell>
        <mxCell id="e8tr8vdrp6v2wdwAVoa9-20" value="1" style="ellipse;whiteSpace=wrap;html=1;" parent="WIyWlLk6GJQsqaUBKTNV-1" vertex="1">
          <mxGeometry x="780" y="230" width="60" height="40" as="geometry" />
        </mxCell>
        <mxCell id="m3hUy5fk4AI3n0GFxQ_9-12" style="edgeStyle=orthogonalEdgeStyle;rounded=0;orthogonalLoop=1;jettySize=auto;html=1;exitX=0.5;exitY=1;exitDx=0;exitDy=0;" edge="1" parent="WIyWlLk6GJQsqaUBKTNV-1" source="e8tr8vdrp6v2wdwAVoa9-21" target="m3hUy5fk4AI3n0GFxQ_9-10">
          <mxGeometry relative="1" as="geometry" />
        </mxCell>
        <mxCell id="e8tr8vdrp6v2wdwAVoa9-21" value="3" style="ellipse;whiteSpace=wrap;html=1;" parent="WIyWlLk6GJQsqaUBKTNV-1" vertex="1">
          <mxGeometry x="720" y="355" width="60" height="40" as="geometry" />
        </mxCell>
        <mxCell id="e8tr8vdrp6v2wdwAVoa9-46" style="edgeStyle=orthogonalEdgeStyle;rounded=0;orthogonalLoop=1;jettySize=auto;html=1;exitX=0;exitY=0.5;exitDx=0;exitDy=0;curved=1;" parent="WIyWlLk6GJQsqaUBKTNV-1" source="e8tr8vdrp6v2wdwAVoa9-23" target="e8tr8vdrp6v2wdwAVoa9-21" edge="1">
          <mxGeometry relative="1" as="geometry" />
        </mxCell>
        <mxCell id="e8tr8vdrp6v2wdwAVoa9-49" style="edgeStyle=orthogonalEdgeStyle;rounded=0;orthogonalLoop=1;jettySize=auto;html=1;exitX=1;exitY=0.5;exitDx=0;exitDy=0;entryX=0.5;entryY=0;entryDx=0;entryDy=0;curved=1;" parent="WIyWlLk6GJQsqaUBKTNV-1" source="e8tr8vdrp6v2wdwAVoa9-23" target="e8tr8vdrp6v2wdwAVoa9-24" edge="1">
          <mxGeometry relative="1" as="geometry" />
        </mxCell>
        <mxCell id="e8tr8vdrp6v2wdwAVoa9-23" value="2" style="ellipse;whiteSpace=wrap;html=1;" parent="WIyWlLk6GJQsqaUBKTNV-1" vertex="1">
          <mxGeometry x="780" y="290" width="60" height="40" as="geometry" />
        </mxCell>
        <mxCell id="e8tr8vdrp6v2wdwAVoa9-45" style="edgeStyle=orthogonalEdgeStyle;rounded=0;orthogonalLoop=1;jettySize=auto;html=1;exitX=1;exitY=0.5;exitDx=0;exitDy=0;curved=1;" parent="WIyWlLk6GJQsqaUBKTNV-1" source="e8tr8vdrp6v2wdwAVoa9-24" target="e8tr8vdrp6v2wdwAVoa9-41" edge="1">
          <mxGeometry relative="1" as="geometry" />
        </mxCell>
        <mxCell id="e8tr8vdrp6v2wdwAVoa9-24" value="11" style="ellipse;whiteSpace=wrap;html=1;" parent="WIyWlLk6GJQsqaUBKTNV-1" vertex="1">
          <mxGeometry x="850" y="355" width="60" height="40" as="geometry" />
        </mxCell>
        <mxCell id="e8tr8vdrp6v2wdwAVoa9-33" style="edgeStyle=orthogonalEdgeStyle;rounded=0;orthogonalLoop=1;jettySize=auto;html=1;exitX=0.5;exitY=1;exitDx=0;exitDy=0;entryX=0.5;entryY=0;entryDx=0;entryDy=0;curved=1;" parent="WIyWlLk6GJQsqaUBKTNV-1" source="e8tr8vdrp6v2wdwAVoa9-25" target="e8tr8vdrp6v2wdwAVoa9-26" edge="1">
          <mxGeometry relative="1" as="geometry" />
        </mxCell>
        <mxCell id="e8tr8vdrp6v2wdwAVoa9-25" value="6" style="ellipse;whiteSpace=wrap;html=1;" parent="WIyWlLk6GJQsqaUBKTNV-1" vertex="1">
          <mxGeometry x="720" y="510" width="60" height="40" as="geometry" />
        </mxCell>
        <mxCell id="e8tr8vdrp6v2wdwAVoa9-34" style="edgeStyle=orthogonalEdgeStyle;rounded=0;orthogonalLoop=1;jettySize=auto;html=1;exitX=0.5;exitY=1;exitDx=0;exitDy=0;entryX=0.5;entryY=0;entryDx=0;entryDy=0;curved=1;" parent="WIyWlLk6GJQsqaUBKTNV-1" source="e8tr8vdrp6v2wdwAVoa9-26" target="e8tr8vdrp6v2wdwAVoa9-27" edge="1">
          <mxGeometry relative="1" as="geometry" />
        </mxCell>
        <mxCell id="e8tr8vdrp6v2wdwAVoa9-47" style="edgeStyle=orthogonalEdgeStyle;rounded=0;orthogonalLoop=1;jettySize=auto;html=1;exitX=1;exitY=0.5;exitDx=0;exitDy=0;entryX=0;entryY=0.5;entryDx=0;entryDy=0;curved=1;" parent="WIyWlLk6GJQsqaUBKTNV-1" source="e8tr8vdrp6v2wdwAVoa9-26" target="e8tr8vdrp6v2wdwAVoa9-28" edge="1">
          <mxGeometry relative="1" as="geometry" />
        </mxCell>
        <mxCell id="e8tr8vdrp6v2wdwAVoa9-26" value="7" style="ellipse;whiteSpace=wrap;html=1;" parent="WIyWlLk6GJQsqaUBKTNV-1" vertex="1">
          <mxGeometry x="720" y="580" width="60" height="40" as="geometry" />
        </mxCell>
        <mxCell id="e8tr8vdrp6v2wdwAVoa9-38" style="edgeStyle=orthogonalEdgeStyle;rounded=0;orthogonalLoop=1;jettySize=auto;html=1;exitX=0.5;exitY=1;exitDx=0;exitDy=0;entryX=0.5;entryY=0;entryDx=0;entryDy=0;curved=1;" parent="WIyWlLk6GJQsqaUBKTNV-1" source="e8tr8vdrp6v2wdwAVoa9-27" target="e8tr8vdrp6v2wdwAVoa9-36" edge="1">
          <mxGeometry relative="1" as="geometry" />
        </mxCell>
        <mxCell id="e8tr8vdrp6v2wdwAVoa9-40" style="edgeStyle=orthogonalEdgeStyle;rounded=0;orthogonalLoop=1;jettySize=auto;html=1;curved=1;" parent="WIyWlLk6GJQsqaUBKTNV-1" source="e8tr8vdrp6v2wdwAVoa9-27" target="e8tr8vdrp6v2wdwAVoa9-28" edge="1">
          <mxGeometry relative="1" as="geometry" />
        </mxCell>
        <mxCell id="e8tr8vdrp6v2wdwAVoa9-27" value="8" style="ellipse;whiteSpace=wrap;html=1;" parent="WIyWlLk6GJQsqaUBKTNV-1" vertex="1">
          <mxGeometry x="720" y="650" width="60" height="40" as="geometry" />
        </mxCell>
        <mxCell id="e8tr8vdrp6v2wdwAVoa9-48" style="edgeStyle=orthogonalEdgeStyle;rounded=0;orthogonalLoop=1;jettySize=auto;html=1;exitX=1;exitY=0.5;exitDx=0;exitDy=0;entryX=0;entryY=0.5;entryDx=0;entryDy=0;curved=1;" parent="WIyWlLk6GJQsqaUBKTNV-1" source="e8tr8vdrp6v2wdwAVoa9-28" target="e8tr8vdrp6v2wdwAVoa9-41" edge="1">
          <mxGeometry relative="1" as="geometry" />
        </mxCell>
        <mxCell id="e8tr8vdrp6v2wdwAVoa9-28" value="10" style="ellipse;whiteSpace=wrap;html=1;" parent="WIyWlLk6GJQsqaUBKTNV-1" vertex="1">
          <mxGeometry x="830" y="580" width="60" height="40" as="geometry" />
        </mxCell>
        <mxCell id="e8tr8vdrp6v2wdwAVoa9-42" style="edgeStyle=orthogonalEdgeStyle;rounded=0;orthogonalLoop=1;jettySize=auto;html=1;exitX=1;exitY=0.5;exitDx=0;exitDy=0;entryX=0.5;entryY=1;entryDx=0;entryDy=0;curved=1;" parent="WIyWlLk6GJQsqaUBKTNV-1" source="e8tr8vdrp6v2wdwAVoa9-36" target="e8tr8vdrp6v2wdwAVoa9-41" edge="1">
          <mxGeometry relative="1" as="geometry" />
        </mxCell>
        <mxCell id="e8tr8vdrp6v2wdwAVoa9-36" value="9" style="ellipse;whiteSpace=wrap;html=1;" parent="WIyWlLk6GJQsqaUBKTNV-1" vertex="1">
          <mxGeometry x="720" y="715" width="60" height="40" as="geometry" />
        </mxCell>
        <mxCell id="e8tr8vdrp6v2wdwAVoa9-41" value="结束" style="ellipse;whiteSpace=wrap;html=1;" parent="WIyWlLk6GJQsqaUBKTNV-1" vertex="1">
          <mxGeometry x="930" y="580" width="60" height="40" as="geometry" />
        </mxCell>
        <mxCell id="e8tr8vdrp6v2wdwAVoa9-54" value="" style="edgeStyle=orthogonalEdgeStyle;rounded=0;orthogonalLoop=1;jettySize=auto;html=1;" parent="WIyWlLk6GJQsqaUBKTNV-1" source="e8tr8vdrp6v2wdwAVoa9-50" target="e8tr8vdrp6v2wdwAVoa9-53" edge="1">
          <mxGeometry relative="1" as="geometry" />
        </mxCell>
        <mxCell id="e8tr8vdrp6v2wdwAVoa9-50" value="&lt;div&gt;totalDays=0;&lt;/div&gt;&lt;div&gt;int i=1&lt;br&gt;&lt;/div&gt;" style="rounded=1;whiteSpace=wrap;html=1;" parent="WIyWlLk6GJQsqaUBKTNV-1" vertex="1">
          <mxGeometry x="185" y="990" width="105" height="40" as="geometry" />
        </mxCell>
        <mxCell id="e8tr8vdrp6v2wdwAVoa9-52" style="edgeStyle=orthogonalEdgeStyle;rounded=0;orthogonalLoop=1;jettySize=auto;html=1;exitX=0.5;exitY=1;exitDx=0;exitDy=0;entryX=0.5;entryY=0;entryDx=0;entryDy=0;" parent="WIyWlLk6GJQsqaUBKTNV-1" source="e8tr8vdrp6v2wdwAVoa9-51" target="e8tr8vdrp6v2wdwAVoa9-50" edge="1">
          <mxGeometry relative="1" as="geometry" />
        </mxCell>
        <mxCell id="e8tr8vdrp6v2wdwAVoa9-51" value="int y,int m,int d" style="rounded=1;whiteSpace=wrap;html=1;" parent="WIyWlLk6GJQsqaUBKTNV-1" vertex="1">
          <mxGeometry x="185" y="910" width="105" height="40" as="geometry" />
        </mxCell>
        <mxCell id="e8tr8vdrp6v2wdwAVoa9-56" value="" style="edgeStyle=orthogonalEdgeStyle;rounded=0;orthogonalLoop=1;jettySize=auto;html=1;" parent="WIyWlLk6GJQsqaUBKTNV-1" source="e8tr8vdrp6v2wdwAVoa9-53" target="e8tr8vdrp6v2wdwAVoa9-55" edge="1">
          <mxGeometry relative="1" as="geometry" />
        </mxCell>
        <mxCell id="e8tr8vdrp6v2wdwAVoa9-73" style="edgeStyle=orthogonalEdgeStyle;rounded=0;orthogonalLoop=1;jettySize=auto;html=1;exitX=1;exitY=0.5;exitDx=0;exitDy=0;entryX=0;entryY=0.5;entryDx=0;entryDy=0;" parent="WIyWlLk6GJQsqaUBKTNV-1" source="e8tr8vdrp6v2wdwAVoa9-53" target="e8tr8vdrp6v2wdwAVoa9-72" edge="1">
          <mxGeometry relative="1" as="geometry" />
        </mxCell>
        <mxCell id="e8tr8vdrp6v2wdwAVoa9-53" value="i&amp;lt;y" style="rhombus;whiteSpace=wrap;html=1;rounded=1;" parent="WIyWlLk6GJQsqaUBKTNV-1" vertex="1">
          <mxGeometry x="196.25" y="1060" width="82.5" height="40" as="geometry" />
        </mxCell>
        <mxCell id="e8tr8vdrp6v2wdwAVoa9-59" style="edgeStyle=orthogonalEdgeStyle;rounded=0;orthogonalLoop=1;jettySize=auto;html=1;exitX=0;exitY=0.5;exitDx=0;exitDy=0;" parent="WIyWlLk6GJQsqaUBKTNV-1" source="e8tr8vdrp6v2wdwAVoa9-55" target="e8tr8vdrp6v2wdwAVoa9-57" edge="1">
          <mxGeometry relative="1" as="geometry" />
        </mxCell>
        <mxCell id="e8tr8vdrp6v2wdwAVoa9-61" style="edgeStyle=orthogonalEdgeStyle;rounded=0;orthogonalLoop=1;jettySize=auto;html=1;exitX=1;exitY=0.5;exitDx=0;exitDy=0;" parent="WIyWlLk6GJQsqaUBKTNV-1" source="e8tr8vdrp6v2wdwAVoa9-55" target="e8tr8vdrp6v2wdwAVoa9-58" edge="1">
          <mxGeometry relative="1" as="geometry" />
        </mxCell>
        <mxCell id="e8tr8vdrp6v2wdwAVoa9-55" value="((i%4==0)&amp;amp;&amp;amp;(i%100!=0))||(i%400==0)" style="rhombus;whiteSpace=wrap;html=1;rounded=1;" parent="WIyWlLk6GJQsqaUBKTNV-1" vertex="1">
          <mxGeometry x="151.25" y="1130" width="172.5" height="70" as="geometry" />
        </mxCell>
        <mxCell id="e8tr8vdrp6v2wdwAVoa9-64" style="edgeStyle=orthogonalEdgeStyle;rounded=0;orthogonalLoop=1;jettySize=auto;html=1;exitX=0.5;exitY=1;exitDx=0;exitDy=0;entryX=0;entryY=0.5;entryDx=0;entryDy=0;" parent="WIyWlLk6GJQsqaUBKTNV-1" source="e8tr8vdrp6v2wdwAVoa9-57" target="e8tr8vdrp6v2wdwAVoa9-63" edge="1">
          <mxGeometry relative="1" as="geometry" />
        </mxCell>
        <mxCell id="e8tr8vdrp6v2wdwAVoa9-57" value="totalDays+=366;" style="rounded=1;whiteSpace=wrap;html=1;" parent="WIyWlLk6GJQsqaUBKTNV-1" vertex="1">
          <mxGeometry x="70" y="1250" width="105" height="40" as="geometry" />
        </mxCell>
        <mxCell id="e8tr8vdrp6v2wdwAVoa9-65" style="edgeStyle=orthogonalEdgeStyle;rounded=0;orthogonalLoop=1;jettySize=auto;html=1;exitX=0.5;exitY=1;exitDx=0;exitDy=0;entryX=1;entryY=0.5;entryDx=0;entryDy=0;" parent="WIyWlLk6GJQsqaUBKTNV-1" source="e8tr8vdrp6v2wdwAVoa9-58" target="e8tr8vdrp6v2wdwAVoa9-63" edge="1">
          <mxGeometry relative="1" as="geometry" />
        </mxCell>
        <mxCell id="e8tr8vdrp6v2wdwAVoa9-58" value="totalDays+=365;" style="rounded=1;whiteSpace=wrap;html=1;" parent="WIyWlLk6GJQsqaUBKTNV-1" vertex="1">
          <mxGeometry x="305" y="1250" width="105" height="40" as="geometry" />
        </mxCell>
        <mxCell id="e8tr8vdrp6v2wdwAVoa9-60" value="T" style="text;html=1;align=center;verticalAlign=middle;resizable=0;points=[];autosize=1;strokeColor=none;fillColor=none;" parent="WIyWlLk6GJQsqaUBKTNV-1" vertex="1">
          <mxGeometry x="135" y="1138" width="30" height="30" as="geometry" />
        </mxCell>
        <mxCell id="e8tr8vdrp6v2wdwAVoa9-62" value="F" style="text;html=1;align=center;verticalAlign=middle;resizable=0;points=[];autosize=1;strokeColor=none;fillColor=none;" parent="WIyWlLk6GJQsqaUBKTNV-1" vertex="1">
          <mxGeometry x="325" y="1138" width="30" height="30" as="geometry" />
        </mxCell>
        <mxCell id="e8tr8vdrp6v2wdwAVoa9-70" style="edgeStyle=orthogonalEdgeStyle;rounded=0;orthogonalLoop=1;jettySize=auto;html=1;exitX=0.5;exitY=1;exitDx=0;exitDy=0;entryX=0.5;entryY=0;entryDx=0;entryDy=0;" parent="WIyWlLk6GJQsqaUBKTNV-1" source="e8tr8vdrp6v2wdwAVoa9-63" target="e8tr8vdrp6v2wdwAVoa9-53" edge="1">
          <mxGeometry relative="1" as="geometry">
            <Array as="points">
              <mxPoint x="235" y="1360" />
              <mxPoint x="60" y="1360" />
              <mxPoint x="60" y="1040" />
              <mxPoint x="238" y="1040" />
            </Array>
          </mxGeometry>
        </mxCell>
        <mxCell id="e8tr8vdrp6v2wdwAVoa9-63" value="i++" style="rounded=1;whiteSpace=wrap;html=1;" parent="WIyWlLk6GJQsqaUBKTNV-1" vertex="1">
          <mxGeometry x="210" y="1310" width="50" height="30" as="geometry" />
        </mxCell>
        <mxCell id="e8tr8vdrp6v2wdwAVoa9-71" value="T" style="text;html=1;align=center;verticalAlign=middle;resizable=0;points=[];autosize=1;strokeColor=none;fillColor=none;" parent="WIyWlLk6GJQsqaUBKTNV-1" vertex="1">
          <mxGeometry x="205" y="1088" width="30" height="30" as="geometry" />
        </mxCell>
        <mxCell id="e8tr8vdrp6v2wdwAVoa9-82" style="edgeStyle=orthogonalEdgeStyle;rounded=0;orthogonalLoop=1;jettySize=auto;html=1;exitX=1;exitY=1;exitDx=0;exitDy=0;entryX=0.5;entryY=0;entryDx=0;entryDy=0;" parent="WIyWlLk6GJQsqaUBKTNV-1" source="e8tr8vdrp6v2wdwAVoa9-72" target="e8tr8vdrp6v2wdwAVoa9-79" edge="1">
          <mxGeometry relative="1" as="geometry">
            <Array as="points">
              <mxPoint x="633" y="1098" />
              <mxPoint x="633" y="1135" />
            </Array>
          </mxGeometry>
        </mxCell>
        <mxCell id="e8tr8vdrp6v2wdwAVoa9-72" value="((i%4==0)&amp;amp;&amp;amp;(i%100!=0))||(i%400==0)" style="rhombus;whiteSpace=wrap;html=1;rounded=1;" parent="WIyWlLk6GJQsqaUBKTNV-1" vertex="1">
          <mxGeometry x="460" y="1045" width="172.5" height="70" as="geometry" />
        </mxCell>
        <mxCell id="e8tr8vdrp6v2wdwAVoa9-74" value="F" style="text;html=1;align=center;verticalAlign=middle;resizable=0;points=[];autosize=1;strokeColor=none;fillColor=none;" parent="WIyWlLk6GJQsqaUBKTNV-1" vertex="1">
          <mxGeometry x="275" y="1048" width="30" height="30" as="geometry" />
        </mxCell>
        <mxCell id="e8tr8vdrp6v2wdwAVoa9-76" value="F" style="text;html=1;align=center;verticalAlign=middle;resizable=0;points=[];autosize=1;strokeColor=none;fillColor=none;" parent="WIyWlLk6GJQsqaUBKTNV-1" vertex="1">
          <mxGeometry x="278.75" y="298" width="30" height="30" as="geometry" />
        </mxCell>
        <mxCell id="e8tr8vdrp6v2wdwAVoa9-87" style="edgeStyle=orthogonalEdgeStyle;rounded=0;orthogonalLoop=1;jettySize=auto;html=1;exitX=0.5;exitY=1;exitDx=0;exitDy=0;entryX=0;entryY=0.5;entryDx=0;entryDy=0;" parent="WIyWlLk6GJQsqaUBKTNV-1" source="e8tr8vdrp6v2wdwAVoa9-78" target="e8tr8vdrp6v2wdwAVoa9-86" edge="1">
          <mxGeometry relative="1" as="geometry" />
        </mxCell>
        <mxCell id="e8tr8vdrp6v2wdwAVoa9-78" value="maxA[1]=29;" style="rounded=1;whiteSpace=wrap;html=1;" parent="WIyWlLk6GJQsqaUBKTNV-1" vertex="1">
          <mxGeometry x="420" y="1150" width="105" height="40" as="geometry" />
        </mxCell>
        <mxCell id="e8tr8vdrp6v2wdwAVoa9-88" style="edgeStyle=orthogonalEdgeStyle;rounded=0;orthogonalLoop=1;jettySize=auto;html=1;exitX=0.5;exitY=1;exitDx=0;exitDy=0;entryX=1;entryY=0.5;entryDx=0;entryDy=0;" parent="WIyWlLk6GJQsqaUBKTNV-1" source="e8tr8vdrp6v2wdwAVoa9-79" target="e8tr8vdrp6v2wdwAVoa9-86" edge="1">
          <mxGeometry relative="1" as="geometry" />
        </mxCell>
        <mxCell id="e8tr8vdrp6v2wdwAVoa9-79" value="maxA[1]=28;" style="rounded=1;whiteSpace=wrap;html=1;" parent="WIyWlLk6GJQsqaUBKTNV-1" vertex="1">
          <mxGeometry x="580" y="1150" width="105" height="40" as="geometry" />
        </mxCell>
        <mxCell id="e8tr8vdrp6v2wdwAVoa9-83" style="edgeStyle=orthogonalEdgeStyle;rounded=0;orthogonalLoop=1;jettySize=auto;html=1;exitX=0;exitY=1;exitDx=0;exitDy=0;entryX=0.444;entryY=-0.012;entryDx=0;entryDy=0;entryPerimeter=0;" parent="WIyWlLk6GJQsqaUBKTNV-1" source="e8tr8vdrp6v2wdwAVoa9-72" target="e8tr8vdrp6v2wdwAVoa9-78" edge="1">
          <mxGeometry relative="1" as="geometry">
            <Array as="points">
              <mxPoint x="467" y="1098" />
            </Array>
          </mxGeometry>
        </mxCell>
        <mxCell id="e8tr8vdrp6v2wdwAVoa9-84" value="T" style="text;html=1;align=center;verticalAlign=middle;resizable=0;points=[];autosize=1;strokeColor=none;fillColor=none;" parent="WIyWlLk6GJQsqaUBKTNV-1" vertex="1">
          <mxGeometry x="475" y="1088" width="30" height="30" as="geometry" />
        </mxCell>
        <mxCell id="e8tr8vdrp6v2wdwAVoa9-85" value="F" style="text;html=1;align=center;verticalAlign=middle;resizable=0;points=[];autosize=1;strokeColor=none;fillColor=none;" parent="WIyWlLk6GJQsqaUBKTNV-1" vertex="1">
          <mxGeometry x="595" y="1092" width="30" height="30" as="geometry" />
        </mxCell>
        <mxCell id="e8tr8vdrp6v2wdwAVoa9-90" value="" style="edgeStyle=orthogonalEdgeStyle;rounded=0;orthogonalLoop=1;jettySize=auto;html=1;" parent="WIyWlLk6GJQsqaUBKTNV-1" source="e8tr8vdrp6v2wdwAVoa9-86" target="e8tr8vdrp6v2wdwAVoa9-89" edge="1">
          <mxGeometry relative="1" as="geometry" />
        </mxCell>
        <mxCell id="e8tr8vdrp6v2wdwAVoa9-86" value="int i=1" style="rounded=1;whiteSpace=wrap;html=1;" parent="WIyWlLk6GJQsqaUBKTNV-1" vertex="1">
          <mxGeometry x="525" y="1210" width="50" height="30" as="geometry" />
        </mxCell>
        <mxCell id="e8tr8vdrp6v2wdwAVoa9-92" value="" style="edgeStyle=orthogonalEdgeStyle;rounded=0;orthogonalLoop=1;jettySize=auto;html=1;" parent="WIyWlLk6GJQsqaUBKTNV-1" source="e8tr8vdrp6v2wdwAVoa9-89" target="e8tr8vdrp6v2wdwAVoa9-91" edge="1">
          <mxGeometry relative="1" as="geometry" />
        </mxCell>
        <mxCell id="e8tr8vdrp6v2wdwAVoa9-101" style="edgeStyle=orthogonalEdgeStyle;rounded=0;orthogonalLoop=1;jettySize=auto;html=1;entryX=0;entryY=0.5;entryDx=0;entryDy=0;" parent="WIyWlLk6GJQsqaUBKTNV-1" source="e8tr8vdrp6v2wdwAVoa9-89" target="e8tr8vdrp6v2wdwAVoa9-99" edge="1">
          <mxGeometry relative="1" as="geometry" />
        </mxCell>
        <mxCell id="e8tr8vdrp6v2wdwAVoa9-89" value="i&amp;lt;m" style="rhombus;whiteSpace=wrap;html=1;rounded=1;" parent="WIyWlLk6GJQsqaUBKTNV-1" vertex="1">
          <mxGeometry x="510" y="1290" width="80" height="35" as="geometry" />
        </mxCell>
        <mxCell id="e8tr8vdrp6v2wdwAVoa9-95" style="edgeStyle=orthogonalEdgeStyle;rounded=0;orthogonalLoop=1;jettySize=auto;html=1;exitX=0.5;exitY=1;exitDx=0;exitDy=0;entryX=0.5;entryY=0;entryDx=0;entryDy=0;" parent="WIyWlLk6GJQsqaUBKTNV-1" source="e8tr8vdrp6v2wdwAVoa9-91" target="e8tr8vdrp6v2wdwAVoa9-93" edge="1">
          <mxGeometry relative="1" as="geometry" />
        </mxCell>
        <mxCell id="e8tr8vdrp6v2wdwAVoa9-91" value="totalDays+=maxA[i-1];" style="whiteSpace=wrap;html=1;rounded=1;" parent="WIyWlLk6GJQsqaUBKTNV-1" vertex="1">
          <mxGeometry x="485" y="1360" width="130" height="37.5" as="geometry" />
        </mxCell>
        <mxCell id="e8tr8vdrp6v2wdwAVoa9-97" style="edgeStyle=orthogonalEdgeStyle;rounded=0;orthogonalLoop=1;jettySize=auto;html=1;exitX=0;exitY=0.5;exitDx=0;exitDy=0;entryX=0.5;entryY=0;entryDx=0;entryDy=0;" parent="WIyWlLk6GJQsqaUBKTNV-1" source="e8tr8vdrp6v2wdwAVoa9-93" target="e8tr8vdrp6v2wdwAVoa9-89" edge="1">
          <mxGeometry relative="1" as="geometry">
            <Array as="points">
              <mxPoint x="450" y="1435" />
              <mxPoint x="450" y="1270" />
              <mxPoint x="550" y="1270" />
            </Array>
          </mxGeometry>
        </mxCell>
        <mxCell id="e8tr8vdrp6v2wdwAVoa9-93" value="i++" style="rounded=1;whiteSpace=wrap;html=1;" parent="WIyWlLk6GJQsqaUBKTNV-1" vertex="1">
          <mxGeometry x="525" y="1420" width="50" height="30" as="geometry" />
        </mxCell>
        <mxCell id="e8tr8vdrp6v2wdwAVoa9-103" value="" style="edgeStyle=orthogonalEdgeStyle;rounded=0;orthogonalLoop=1;jettySize=auto;html=1;" parent="WIyWlLk6GJQsqaUBKTNV-1" source="e8tr8vdrp6v2wdwAVoa9-99" target="e8tr8vdrp6v2wdwAVoa9-102" edge="1">
          <mxGeometry relative="1" as="geometry" />
        </mxCell>
        <mxCell id="e8tr8vdrp6v2wdwAVoa9-99" value="totalDays+=(d-1);&lt;br&gt;&amp;nbsp;&amp;nbsp; &amp;nbsp;maxA[1]=28;&lt;br&gt;&amp;nbsp;&amp;nbsp; &amp;nbsp;return (totalDays%7);" style="whiteSpace=wrap;html=1;rounded=1;" parent="WIyWlLk6GJQsqaUBKTNV-1" vertex="1">
          <mxGeometry x="660" y="1276.88" width="140" height="61.25" as="geometry" />
        </mxCell>
        <mxCell id="e8tr8vdrp6v2wdwAVoa9-102" value="&lt;div&gt;end&lt;/div&gt;" style="ellipse;whiteSpace=wrap;html=1;rounded=1;" parent="WIyWlLk6GJQsqaUBKTNV-1" vertex="1">
          <mxGeometry x="695" y="1390" width="70" height="31.24" as="geometry" />
        </mxCell>
        <mxCell id="e8tr8vdrp6v2wdwAVoa9-121" style="edgeStyle=orthogonalEdgeStyle;rounded=0;orthogonalLoop=1;jettySize=auto;html=1;exitX=0.5;exitY=1;exitDx=0;exitDy=0;entryX=0.5;entryY=0;entryDx=0;entryDy=0;curved=1;" parent="WIyWlLk6GJQsqaUBKTNV-1" source="e8tr8vdrp6v2wdwAVoa9-104" target="e8tr8vdrp6v2wdwAVoa9-106" edge="1">
          <mxGeometry relative="1" as="geometry" />
        </mxCell>
        <mxCell id="e8tr8vdrp6v2wdwAVoa9-104" value="1" style="ellipse;whiteSpace=wrap;html=1;" parent="WIyWlLk6GJQsqaUBKTNV-1" vertex="1">
          <mxGeometry x="1000" y="908" width="60" height="42" as="geometry" />
        </mxCell>
        <mxCell id="e8tr8vdrp6v2wdwAVoa9-122" style="edgeStyle=orthogonalEdgeStyle;rounded=0;orthogonalLoop=1;jettySize=auto;html=1;exitX=0.5;exitY=1;exitDx=0;exitDy=0;entryX=0.5;entryY=0;entryDx=0;entryDy=0;curved=1;" parent="WIyWlLk6GJQsqaUBKTNV-1" source="e8tr8vdrp6v2wdwAVoa9-106" target="e8tr8vdrp6v2wdwAVoa9-107" edge="1">
          <mxGeometry relative="1" as="geometry" />
        </mxCell>
        <mxCell id="e8tr8vdrp6v2wdwAVoa9-106" value="2" style="ellipse;whiteSpace=wrap;html=1;" parent="WIyWlLk6GJQsqaUBKTNV-1" vertex="1">
          <mxGeometry x="1000" y="980" width="60" height="42" as="geometry" />
        </mxCell>
        <mxCell id="e8tr8vdrp6v2wdwAVoa9-123" style="edgeStyle=orthogonalEdgeStyle;rounded=0;orthogonalLoop=1;jettySize=auto;html=1;exitX=0.5;exitY=1;exitDx=0;exitDy=0;entryX=0.5;entryY=0;entryDx=0;entryDy=0;curved=1;" parent="WIyWlLk6GJQsqaUBKTNV-1" source="e8tr8vdrp6v2wdwAVoa9-107" target="e8tr8vdrp6v2wdwAVoa9-108" edge="1">
          <mxGeometry relative="1" as="geometry" />
        </mxCell>
        <mxCell id="m3hUy5fk4AI3n0GFxQ_9-40" style="edgeStyle=orthogonalEdgeStyle;rounded=0;orthogonalLoop=1;jettySize=auto;html=1;exitX=1;exitY=0.5;exitDx=0;exitDy=0;entryX=0.5;entryY=0;entryDx=0;entryDy=0;curved=1;" edge="1" parent="WIyWlLk6GJQsqaUBKTNV-1" source="e8tr8vdrp6v2wdwAVoa9-107" target="m3hUy5fk4AI3n0GFxQ_9-33">
          <mxGeometry relative="1" as="geometry" />
        </mxCell>
        <mxCell id="e8tr8vdrp6v2wdwAVoa9-107" value="3" style="ellipse;whiteSpace=wrap;html=1;" parent="WIyWlLk6GJQsqaUBKTNV-1" vertex="1">
          <mxGeometry x="1000" y="1050" width="60" height="42" as="geometry" />
        </mxCell>
        <mxCell id="m3hUy5fk4AI3n0GFxQ_9-22" style="edgeStyle=orthogonalEdgeStyle;rounded=0;orthogonalLoop=1;jettySize=auto;html=1;curved=1;" edge="1" parent="WIyWlLk6GJQsqaUBKTNV-1" source="e8tr8vdrp6v2wdwAVoa9-108" target="m3hUy5fk4AI3n0GFxQ_9-19">
          <mxGeometry relative="1" as="geometry" />
        </mxCell>
        <mxCell id="e8tr8vdrp6v2wdwAVoa9-108" value="4" style="ellipse;whiteSpace=wrap;html=1;" parent="WIyWlLk6GJQsqaUBKTNV-1" vertex="1">
          <mxGeometry x="1000" y="1118" width="60" height="42" as="geometry" />
        </mxCell>
        <mxCell id="e8tr8vdrp6v2wdwAVoa9-126" style="edgeStyle=orthogonalEdgeStyle;rounded=0;orthogonalLoop=1;jettySize=auto;html=1;exitX=0.5;exitY=1;exitDx=0;exitDy=0;curved=1;" parent="WIyWlLk6GJQsqaUBKTNV-1" source="e8tr8vdrp6v2wdwAVoa9-109" target="e8tr8vdrp6v2wdwAVoa9-111" edge="1">
          <mxGeometry relative="1" as="geometry" />
        </mxCell>
        <mxCell id="e8tr8vdrp6v2wdwAVoa9-109" value="7" style="ellipse;whiteSpace=wrap;html=1;" parent="WIyWlLk6GJQsqaUBKTNV-1" vertex="1">
          <mxGeometry x="960" y="1278.13" width="60" height="42" as="geometry" />
        </mxCell>
        <mxCell id="e8tr8vdrp6v2wdwAVoa9-127" style="edgeStyle=orthogonalEdgeStyle;rounded=0;orthogonalLoop=1;jettySize=auto;html=1;exitX=0.5;exitY=1;exitDx=0;exitDy=0;curved=1;" parent="WIyWlLk6GJQsqaUBKTNV-1" source="e8tr8vdrp6v2wdwAVoa9-110" target="e8tr8vdrp6v2wdwAVoa9-111" edge="1">
          <mxGeometry relative="1" as="geometry" />
        </mxCell>
        <mxCell id="e8tr8vdrp6v2wdwAVoa9-110" value="8" style="ellipse;whiteSpace=wrap;html=1;" parent="WIyWlLk6GJQsqaUBKTNV-1" vertex="1">
          <mxGeometry x="1050" y="1276.88" width="60" height="42" as="geometry" />
        </mxCell>
        <mxCell id="e8tr8vdrp6v2wdwAVoa9-128" style="edgeStyle=orthogonalEdgeStyle;rounded=0;orthogonalLoop=1;jettySize=auto;html=1;exitX=0;exitY=0.5;exitDx=0;exitDy=0;entryX=0;entryY=0.5;entryDx=0;entryDy=0;curved=1;" parent="WIyWlLk6GJQsqaUBKTNV-1" source="e8tr8vdrp6v2wdwAVoa9-111" target="e8tr8vdrp6v2wdwAVoa9-107" edge="1">
          <mxGeometry relative="1" as="geometry">
            <Array as="points">
              <mxPoint x="1010" y="1390" />
              <mxPoint x="930" y="1390" />
              <mxPoint x="930" y="1071" />
            </Array>
          </mxGeometry>
        </mxCell>
        <mxCell id="e8tr8vdrp6v2wdwAVoa9-111" value="9" style="ellipse;whiteSpace=wrap;html=1;" parent="WIyWlLk6GJQsqaUBKTNV-1" vertex="1">
          <mxGeometry x="1010" y="1362.13" width="60" height="42" as="geometry" />
        </mxCell>
        <mxCell id="e8tr8vdrp6v2wdwAVoa9-133" style="edgeStyle=orthogonalEdgeStyle;rounded=0;orthogonalLoop=1;jettySize=auto;html=1;exitX=0.5;exitY=1;exitDx=0;exitDy=0;entryX=0.5;entryY=0;entryDx=0;entryDy=0;curved=1;" parent="WIyWlLk6GJQsqaUBKTNV-1" source="e8tr8vdrp6v2wdwAVoa9-113" target="e8tr8vdrp6v2wdwAVoa9-115" edge="1">
          <mxGeometry relative="1" as="geometry" />
        </mxCell>
        <mxCell id="e8tr8vdrp6v2wdwAVoa9-113" value="13" style="ellipse;whiteSpace=wrap;html=1;" parent="WIyWlLk6GJQsqaUBKTNV-1" vertex="1">
          <mxGeometry x="1130" y="1084" width="60" height="42" as="geometry" />
        </mxCell>
        <mxCell id="e8tr8vdrp6v2wdwAVoa9-143" style="edgeStyle=orthogonalEdgeStyle;rounded=0;orthogonalLoop=1;jettySize=auto;html=1;exitX=0.5;exitY=1;exitDx=0;exitDy=0;curved=1;" parent="WIyWlLk6GJQsqaUBKTNV-1" source="e8tr8vdrp6v2wdwAVoa9-114" target="e8tr8vdrp6v2wdwAVoa9-115" edge="1">
          <mxGeometry relative="1" as="geometry" />
        </mxCell>
        <mxCell id="e8tr8vdrp6v2wdwAVoa9-114" value="14" style="ellipse;whiteSpace=wrap;html=1;" parent="WIyWlLk6GJQsqaUBKTNV-1" vertex="1">
          <mxGeometry x="1220" y="1084" width="60" height="42" as="geometry" />
        </mxCell>
        <mxCell id="e8tr8vdrp6v2wdwAVoa9-135" style="edgeStyle=orthogonalEdgeStyle;rounded=0;orthogonalLoop=1;jettySize=auto;html=1;exitX=0.5;exitY=1;exitDx=0;exitDy=0;curved=1;" parent="WIyWlLk6GJQsqaUBKTNV-1" source="e8tr8vdrp6v2wdwAVoa9-115" target="e8tr8vdrp6v2wdwAVoa9-116" edge="1">
          <mxGeometry relative="1" as="geometry" />
        </mxCell>
        <mxCell id="e8tr8vdrp6v2wdwAVoa9-115" value="15" style="ellipse;whiteSpace=wrap;html=1;" parent="WIyWlLk6GJQsqaUBKTNV-1" vertex="1">
          <mxGeometry x="1170" y="1174.88" width="60" height="42" as="geometry" />
        </mxCell>
        <mxCell id="e8tr8vdrp6v2wdwAVoa9-136" style="edgeStyle=orthogonalEdgeStyle;rounded=0;orthogonalLoop=1;jettySize=auto;html=1;exitX=0.5;exitY=1;exitDx=0;exitDy=0;entryX=0.5;entryY=0;entryDx=0;entryDy=0;curved=1;" parent="WIyWlLk6GJQsqaUBKTNV-1" source="e8tr8vdrp6v2wdwAVoa9-116" target="e8tr8vdrp6v2wdwAVoa9-117" edge="1">
          <mxGeometry relative="1" as="geometry" />
        </mxCell>
        <mxCell id="e8tr8vdrp6v2wdwAVoa9-139" style="edgeStyle=orthogonalEdgeStyle;rounded=0;orthogonalLoop=1;jettySize=auto;html=1;exitX=1;exitY=0.5;exitDx=0;exitDy=0;entryX=0;entryY=0.5;entryDx=0;entryDy=0;curved=1;" parent="WIyWlLk6GJQsqaUBKTNV-1" source="e8tr8vdrp6v2wdwAVoa9-116" target="e8tr8vdrp6v2wdwAVoa9-119" edge="1">
          <mxGeometry relative="1" as="geometry" />
        </mxCell>
        <mxCell id="e8tr8vdrp6v2wdwAVoa9-116" value="16" style="ellipse;whiteSpace=wrap;html=1;" parent="WIyWlLk6GJQsqaUBKTNV-1" vertex="1">
          <mxGeometry x="1170" y="1250" width="60" height="42" as="geometry" />
        </mxCell>
        <mxCell id="e8tr8vdrp6v2wdwAVoa9-137" style="edgeStyle=orthogonalEdgeStyle;rounded=0;orthogonalLoop=1;jettySize=auto;html=1;exitX=0.5;exitY=1;exitDx=0;exitDy=0;entryX=0.5;entryY=0;entryDx=0;entryDy=0;curved=1;" parent="WIyWlLk6GJQsqaUBKTNV-1" source="e8tr8vdrp6v2wdwAVoa9-117" target="e8tr8vdrp6v2wdwAVoa9-118" edge="1">
          <mxGeometry relative="1" as="geometry" />
        </mxCell>
        <mxCell id="e8tr8vdrp6v2wdwAVoa9-117" value="17" style="ellipse;whiteSpace=wrap;html=1;" parent="WIyWlLk6GJQsqaUBKTNV-1" vertex="1">
          <mxGeometry x="1170" y="1320.13" width="60" height="42" as="geometry" />
        </mxCell>
        <mxCell id="e8tr8vdrp6v2wdwAVoa9-142" style="edgeStyle=orthogonalEdgeStyle;rounded=0;orthogonalLoop=1;jettySize=auto;html=1;exitX=0;exitY=0.5;exitDx=0;exitDy=0;entryX=0.5;entryY=0;entryDx=0;entryDy=0;curved=1;" parent="WIyWlLk6GJQsqaUBKTNV-1" source="e8tr8vdrp6v2wdwAVoa9-118" target="e8tr8vdrp6v2wdwAVoa9-116" edge="1">
          <mxGeometry relative="1" as="geometry">
            <Array as="points">
              <mxPoint x="1150" y="1411" />
              <mxPoint x="1150" y="1230" />
              <mxPoint x="1200" y="1230" />
            </Array>
          </mxGeometry>
        </mxCell>
        <mxCell id="e8tr8vdrp6v2wdwAVoa9-118" value="18" style="ellipse;whiteSpace=wrap;html=1;" parent="WIyWlLk6GJQsqaUBKTNV-1" vertex="1">
          <mxGeometry x="1170" y="1390" width="60" height="42" as="geometry" />
        </mxCell>
        <mxCell id="e8tr8vdrp6v2wdwAVoa9-140" style="edgeStyle=orthogonalEdgeStyle;rounded=0;orthogonalLoop=1;jettySize=auto;html=1;exitX=0.5;exitY=1;exitDx=0;exitDy=0;curved=1;" parent="WIyWlLk6GJQsqaUBKTNV-1" source="e8tr8vdrp6v2wdwAVoa9-119" target="e8tr8vdrp6v2wdwAVoa9-120" edge="1">
          <mxGeometry relative="1" as="geometry" />
        </mxCell>
        <mxCell id="e8tr8vdrp6v2wdwAVoa9-119" value="19" style="ellipse;whiteSpace=wrap;html=1;" parent="WIyWlLk6GJQsqaUBKTNV-1" vertex="1">
          <mxGeometry x="1270" y="1250" width="60" height="42" as="geometry" />
        </mxCell>
        <mxCell id="e8tr8vdrp6v2wdwAVoa9-120" value="结束" style="ellipse;whiteSpace=wrap;html=1;" parent="WIyWlLk6GJQsqaUBKTNV-1" vertex="1">
          <mxGeometry x="1270" y="1320.13" width="60" height="42" as="geometry" />
        </mxCell>
        <mxCell id="e8tr8vdrp6v2wdwAVoa9-145" style="edgeStyle=orthogonalEdgeStyle;rounded=0;orthogonalLoop=1;jettySize=auto;html=1;exitX=0.5;exitY=1;exitDx=0;exitDy=0;" parent="WIyWlLk6GJQsqaUBKTNV-1" source="e8tr8vdrp6v2wdwAVoa9-144" target="e8tr8vdrp6v2wdwAVoa9-104" edge="1">
          <mxGeometry relative="1" as="geometry" />
        </mxCell>
        <mxCell id="e8tr8vdrp6v2wdwAVoa9-144" value="开始" style="ellipse;whiteSpace=wrap;html=1;" parent="WIyWlLk6GJQsqaUBKTNV-1" vertex="1">
          <mxGeometry x="1000" y="840" width="60" height="42" as="geometry" />
        </mxCell>
        <mxCell id="e8tr8vdrp6v2wdwAVoa9-147" style="edgeStyle=orthogonalEdgeStyle;rounded=0;orthogonalLoop=1;jettySize=auto;html=1;exitX=0.5;exitY=1;exitDx=0;exitDy=0;entryX=0.5;entryY=0;entryDx=0;entryDy=0;" parent="WIyWlLk6GJQsqaUBKTNV-1" source="e8tr8vdrp6v2wdwAVoa9-146" target="e8tr8vdrp6v2wdwAVoa9-20" edge="1">
          <mxGeometry relative="1" as="geometry" />
        </mxCell>
        <mxCell id="e8tr8vdrp6v2wdwAVoa9-146" value="开始" style="ellipse;whiteSpace=wrap;html=1;" parent="WIyWlLk6GJQsqaUBKTNV-1" vertex="1">
          <mxGeometry x="780" y="160" width="60" height="40" as="geometry" />
        </mxCell>
        <mxCell id="m3hUy5fk4AI3n0GFxQ_9-13" style="edgeStyle=orthogonalEdgeStyle;rounded=0;orthogonalLoop=1;jettySize=auto;html=1;exitX=1;exitY=0.5;exitDx=0;exitDy=0;entryX=0;entryY=0.5;entryDx=0;entryDy=0;" edge="1" parent="WIyWlLk6GJQsqaUBKTNV-1" source="m3hUy5fk4AI3n0GFxQ_9-10" target="m3hUy5fk4AI3n0GFxQ_9-11">
          <mxGeometry relative="1" as="geometry" />
        </mxCell>
        <mxCell id="m3hUy5fk4AI3n0GFxQ_9-14" style="edgeStyle=orthogonalEdgeStyle;rounded=0;orthogonalLoop=1;jettySize=auto;html=1;exitX=0.5;exitY=1;exitDx=0;exitDy=0;" edge="1" parent="WIyWlLk6GJQsqaUBKTNV-1" source="m3hUy5fk4AI3n0GFxQ_9-10" target="e8tr8vdrp6v2wdwAVoa9-25">
          <mxGeometry relative="1" as="geometry" />
        </mxCell>
        <mxCell id="m3hUy5fk4AI3n0GFxQ_9-10" value="4" style="ellipse;whiteSpace=wrap;html=1;" vertex="1" parent="WIyWlLk6GJQsqaUBKTNV-1">
          <mxGeometry x="720" y="418" width="60" height="40" as="geometry" />
        </mxCell>
        <mxCell id="m3hUy5fk4AI3n0GFxQ_9-15" style="edgeStyle=orthogonalEdgeStyle;rounded=0;orthogonalLoop=1;jettySize=auto;html=1;exitX=0.5;exitY=1;exitDx=0;exitDy=0;curved=1;" edge="1" parent="WIyWlLk6GJQsqaUBKTNV-1" source="m3hUy5fk4AI3n0GFxQ_9-11" target="e8tr8vdrp6v2wdwAVoa9-25">
          <mxGeometry relative="1" as="geometry" />
        </mxCell>
        <mxCell id="m3hUy5fk4AI3n0GFxQ_9-18" style="edgeStyle=orthogonalEdgeStyle;rounded=0;orthogonalLoop=1;jettySize=auto;html=1;exitX=1;exitY=0.5;exitDx=0;exitDy=0;entryX=0.5;entryY=0;entryDx=0;entryDy=0;curved=1;" edge="1" parent="WIyWlLk6GJQsqaUBKTNV-1" source="m3hUy5fk4AI3n0GFxQ_9-11" target="e8tr8vdrp6v2wdwAVoa9-26">
          <mxGeometry relative="1" as="geometry">
            <Array as="points">
              <mxPoint x="890" y="438" />
              <mxPoint x="890" y="550" />
              <mxPoint x="750" y="550" />
            </Array>
          </mxGeometry>
        </mxCell>
        <mxCell id="m3hUy5fk4AI3n0GFxQ_9-11" value="5" style="ellipse;whiteSpace=wrap;html=1;" vertex="1" parent="WIyWlLk6GJQsqaUBKTNV-1">
          <mxGeometry x="810" y="418" width="60" height="40" as="geometry" />
        </mxCell>
        <mxCell id="m3hUy5fk4AI3n0GFxQ_9-23" style="edgeStyle=orthogonalEdgeStyle;rounded=0;orthogonalLoop=1;jettySize=auto;html=1;exitX=1;exitY=0.5;exitDx=0;exitDy=0;entryX=0;entryY=0.5;entryDx=0;entryDy=0;curved=1;" edge="1" parent="WIyWlLk6GJQsqaUBKTNV-1" source="m3hUy5fk4AI3n0GFxQ_9-19" target="m3hUy5fk4AI3n0GFxQ_9-20">
          <mxGeometry relative="1" as="geometry" />
        </mxCell>
        <mxCell id="m3hUy5fk4AI3n0GFxQ_9-24" style="edgeStyle=orthogonalEdgeStyle;rounded=0;orthogonalLoop=1;jettySize=auto;html=1;entryX=0.5;entryY=0;entryDx=0;entryDy=0;curved=1;" edge="1" parent="WIyWlLk6GJQsqaUBKTNV-1" source="m3hUy5fk4AI3n0GFxQ_9-19" target="e8tr8vdrp6v2wdwAVoa9-109">
          <mxGeometry relative="1" as="geometry" />
        </mxCell>
        <mxCell id="m3hUy5fk4AI3n0GFxQ_9-19" value="5" style="ellipse;whiteSpace=wrap;html=1;" vertex="1" parent="WIyWlLk6GJQsqaUBKTNV-1">
          <mxGeometry x="960" y="1190" width="60" height="42" as="geometry" />
        </mxCell>
        <mxCell id="m3hUy5fk4AI3n0GFxQ_9-27" style="edgeStyle=orthogonalEdgeStyle;rounded=0;orthogonalLoop=1;jettySize=auto;html=1;exitX=0.5;exitY=1;exitDx=0;exitDy=0;entryX=0.5;entryY=0;entryDx=0;entryDy=0;curved=1;" edge="1" parent="WIyWlLk6GJQsqaUBKTNV-1" source="m3hUy5fk4AI3n0GFxQ_9-20" target="e8tr8vdrp6v2wdwAVoa9-109">
          <mxGeometry relative="1" as="geometry" />
        </mxCell>
        <mxCell id="m3hUy5fk4AI3n0GFxQ_9-29" style="edgeStyle=orthogonalEdgeStyle;rounded=0;orthogonalLoop=1;jettySize=auto;html=1;exitX=1;exitY=0.5;exitDx=0;exitDy=0;entryX=0.5;entryY=0;entryDx=0;entryDy=0;curved=1;" edge="1" parent="WIyWlLk6GJQsqaUBKTNV-1" source="m3hUy5fk4AI3n0GFxQ_9-20" target="e8tr8vdrp6v2wdwAVoa9-110">
          <mxGeometry relative="1" as="geometry" />
        </mxCell>
        <mxCell id="m3hUy5fk4AI3n0GFxQ_9-20" value="6" style="ellipse;whiteSpace=wrap;html=1;" vertex="1" parent="WIyWlLk6GJQsqaUBKTNV-1">
          <mxGeometry x="1050" y="1190" width="60" height="42" as="geometry" />
        </mxCell>
        <mxCell id="m3hUy5fk4AI3n0GFxQ_9-32" style="edgeStyle=orthogonalEdgeStyle;rounded=0;orthogonalLoop=1;jettySize=auto;html=1;curved=1;" edge="1" parent="WIyWlLk6GJQsqaUBKTNV-1" source="m3hUy5fk4AI3n0GFxQ_9-33" target="m3hUy5fk4AI3n0GFxQ_9-36">
          <mxGeometry relative="1" as="geometry" />
        </mxCell>
        <mxCell id="m3hUy5fk4AI3n0GFxQ_9-33" value="10" style="ellipse;whiteSpace=wrap;html=1;" vertex="1" parent="WIyWlLk6GJQsqaUBKTNV-1">
          <mxGeometry x="1170" y="925" width="60" height="42" as="geometry" />
        </mxCell>
        <mxCell id="m3hUy5fk4AI3n0GFxQ_9-34" style="edgeStyle=orthogonalEdgeStyle;rounded=0;orthogonalLoop=1;jettySize=auto;html=1;exitX=1;exitY=0.5;exitDx=0;exitDy=0;entryX=0;entryY=0.5;entryDx=0;entryDy=0;curved=1;" edge="1" parent="WIyWlLk6GJQsqaUBKTNV-1" source="m3hUy5fk4AI3n0GFxQ_9-36" target="m3hUy5fk4AI3n0GFxQ_9-39">
          <mxGeometry relative="1" as="geometry" />
        </mxCell>
        <mxCell id="m3hUy5fk4AI3n0GFxQ_9-43" style="edgeStyle=orthogonalEdgeStyle;rounded=0;orthogonalLoop=1;jettySize=auto;html=1;exitX=0.5;exitY=1;exitDx=0;exitDy=0;" edge="1" parent="WIyWlLk6GJQsqaUBKTNV-1" source="m3hUy5fk4AI3n0GFxQ_9-36" target="e8tr8vdrp6v2wdwAVoa9-113">
          <mxGeometry relative="1" as="geometry" />
        </mxCell>
        <mxCell id="m3hUy5fk4AI3n0GFxQ_9-36" value="11" style="ellipse;whiteSpace=wrap;html=1;" vertex="1" parent="WIyWlLk6GJQsqaUBKTNV-1">
          <mxGeometry x="1130" y="997" width="60" height="42" as="geometry" />
        </mxCell>
        <mxCell id="m3hUy5fk4AI3n0GFxQ_9-41" style="edgeStyle=orthogonalEdgeStyle;rounded=0;orthogonalLoop=1;jettySize=auto;html=1;exitX=1;exitY=0.5;exitDx=0;exitDy=0;entryX=0.5;entryY=0;entryDx=0;entryDy=0;curved=1;" edge="1" parent="WIyWlLk6GJQsqaUBKTNV-1" source="m3hUy5fk4AI3n0GFxQ_9-39" target="e8tr8vdrp6v2wdwAVoa9-114">
          <mxGeometry relative="1" as="geometry" />
        </mxCell>
        <mxCell id="m3hUy5fk4AI3n0GFxQ_9-44" style="edgeStyle=orthogonalEdgeStyle;rounded=0;orthogonalLoop=1;jettySize=auto;html=1;exitX=0.5;exitY=1;exitDx=0;exitDy=0;curved=1;" edge="1" parent="WIyWlLk6GJQsqaUBKTNV-1" source="m3hUy5fk4AI3n0GFxQ_9-39" target="e8tr8vdrp6v2wdwAVoa9-113">
          <mxGeometry relative="1" as="geometry" />
        </mxCell>
        <mxCell id="m3hUy5fk4AI3n0GFxQ_9-39" value="12" style="ellipse;whiteSpace=wrap;html=1;" vertex="1" parent="WIyWlLk6GJQsqaUBKTNV-1">
          <mxGeometry x="1220" y="997" width="60" height="42" as="geometry" />
        </mxCell>
      </root>
    </mxGraphModel>
  </diagram>
</mxfile>
